<svg width="16" height="16" viewBox="0 0 16 16" fill="none" xmlns="http://www.w3.org/2000/svg">
<path d="M15.6663 3.05751C15.3785 2.70687 14.9419 2.51171 14.4887 2.51171H4.65424C4.37307 2.51171 4.10513 2.5911 3.87357 2.73334L3.37077 0.976834C3.28807 0.689045 3.02674 0.49057 2.72903 0.49057H1.9649H0.506111C0.228246 0.49057 0 0.715508 0 0.996681V1.04961C0 1.32747 0.224938 1.55572 0.506111 1.55572H2.41809L3.39392 5.00588L4.73694 9.76597C3.97281 9.95783 3.40716 10.6492 3.40716 11.4696C3.40716 12.3991 4.13159 13.1632 5.04788 13.2227C4.9718 13.4411 4.93541 13.6825 4.95526 13.9306C5.02142 14.7709 5.70616 15.449 6.54637 15.5052C7.54867 15.5747 8.38557 14.7775 8.38557 13.7917C8.38557 13.5932 8.35249 13.4047 8.28964 13.2261H10.3009C10.2182 13.4609 10.1851 13.7222 10.2148 13.9902C10.3075 14.8039 10.979 15.4457 11.7993 15.5052C12.8016 15.5747 13.6419 14.7808 13.6419 13.7917C13.6419 12.8357 12.848 12.0716 11.8953 12.0716H5.17689C4.84941 12.0716 4.57154 11.8169 4.55831 11.4927C4.54508 11.1487 4.81964 10.8675 5.16035 10.8675H6.16927H11.6373H13.1754C13.8569 10.8675 14.4523 10.4011 14.6177 9.73951L15.9541 4.36083C16.0699 3.89773 15.964 3.42469 15.6663 3.05751ZM11.925 13.2227C12.236 13.2227 12.4907 13.4775 12.4907 13.7884C12.4907 14.0993 12.236 14.3541 11.925 14.3541C11.6141 14.3541 11.3594 14.0993 11.3594 13.7884C11.3594 13.4775 11.6108 13.2227 11.925 13.2227ZM6.66876 13.2227C6.97971 13.2227 7.23442 13.4775 7.23442 13.7884C7.23442 14.0993 6.97971 14.3541 6.66876 14.3541C6.35782 14.3541 6.10311 14.0993 6.10311 13.7884C6.10311 13.4775 6.35451 13.2227 6.66876 13.2227ZM4.59139 4.99926L4.33337 4.08958C4.29368 3.95065 4.34991 3.84811 4.38961 3.79849C4.42599 3.74887 4.512 3.66617 4.65424 3.66617H5.73262L6.02703 5.00257H4.59139V4.99926ZM4.91557 6.15042H6.27843L6.54968 7.38758H5.2629L4.91557 6.15042ZM6.16927 9.70974C6.02041 9.70974 5.88809 9.6105 5.8484 9.46495L5.58707 8.53873H6.80108L7.0591 9.70643H6.16927V9.70974ZM9.05046 9.70974H8.23672L7.9787 8.54204H9.04716V9.70974H9.05046ZM9.05046 7.38758H7.7273L7.45605 6.15042H9.05046V7.38758ZM9.05046 4.99926H7.20464L6.91024 3.66286H9.05046V4.99926ZM11.1146 9.70974H10.2049V8.54204H11.3594L11.1146 9.70974ZM11.6042 7.38758H10.2049V6.15042H11.8655L11.6042 7.38758ZM10.2049 4.99926V3.66286H12.3882L12.107 4.99926H10.2049ZM13.5029 9.45833C13.4665 9.60719 13.3342 9.71305 13.1787 9.71305H12.2922L12.5403 8.54535H13.7312L13.5029 9.45833ZM14.0156 7.38758H12.7818L13.0431 6.15042H14.3233L14.0156 7.38758ZM14.836 4.07635L14.6078 4.99595H13.2846L13.5658 3.65956H14.5118C14.6541 3.65956 14.7368 3.73895 14.7732 3.78856C14.8129 3.83818 14.8724 3.94073 14.836 4.07635Z" fill="black"/>
</svg>
