<svg width="14" height="12" viewBox="0 0 14 12" fill="none" xmlns="http://www.w3.org/2000/svg">
<path d="M1.34372 3.89067C1.52082 4.01565 2.05466 4.38681 2.94527 5.00397C3.8359 5.62113 4.51819 6.09633 4.99216 6.42959C5.04423 6.46612 5.15486 6.54553 5.32411 6.66793C5.49338 6.79041 5.63403 6.88938 5.74595 6.96488C5.85795 7.04035 5.99334 7.12501 6.15227 7.21873C6.31114 7.31237 6.46091 7.38281 6.60153 7.42944C6.74218 7.47645 6.87238 7.49973 6.99215 7.49973H7H7.00788C7.12765 7.49973 7.2579 7.47642 7.39855 7.42944C7.53912 7.38281 7.68902 7.31229 7.84776 7.21873C8.00658 7.1249 8.14197 7.04032 8.25397 6.96488C8.36597 6.88938 8.50651 6.79041 8.67584 6.66793C8.84505 6.54542 8.95582 6.46612 9.0079 6.42959C9.48698 6.09633 10.7058 5.24994 12.6641 3.89051C13.0443 3.625 13.3619 3.30463 13.6171 2.92961C13.8725 2.55475 14 2.16151 14 1.75009C14 1.40629 13.8762 1.112 13.6288 0.867228C13.3814 0.622404 13.0884 0.500061 12.75 0.500061H1.24995C0.848933 0.500061 0.540324 0.635457 0.324178 0.906248C0.108059 1.17709 0 1.51564 0 1.92185C0 2.24997 0.143277 2.60554 0.429693 2.98833C0.716082 3.37115 1.02086 3.67196 1.34372 3.89067Z" fill="#E53131"/>
<path d="M13.2186 4.72654C11.5105 5.88268 10.2134 6.7812 9.32815 7.42189C9.03128 7.64055 8.79045 7.81125 8.6055 7.93357C8.42055 8.05596 8.17458 8.18096 7.86723 8.3085C7.55999 8.43624 7.27366 8.49991 7.00798 8.49991H7.00002H6.99217C6.72655 8.49991 6.44005 8.43624 6.13281 8.3085C5.82557 8.18096 5.57943 8.05596 5.39454 7.93357C5.20969 7.81125 4.96878 7.64055 4.67194 7.42189C3.96878 6.9063 2.67453 6.00773 0.789142 4.72654C0.492191 4.52875 0.229171 4.30204 0 4.04688V10.2498C0 10.5938 0.122343 10.8879 0.367166 11.1327C0.611935 11.3776 0.906259 11.5 1.25003 11.5H12.7501C13.0938 11.5 13.388 11.3776 13.6328 11.1327C13.8777 10.8878 14 10.5938 14 10.2498V4.04688C13.776 4.29676 13.5157 4.52347 13.2186 4.72654Z" fill="#E53131"/>
</svg>
