<svg width="18" height="18" viewBox="0 0 18 18" fill="none" xmlns="http://www.w3.org/2000/svg">
<path d="M11.7773 0H4.54776C3.49159 0 2.63195 0.860202 2.63195 1.91577V8.99996H2.4448C2.01852 8.99996 1.67285 9.34533 1.67285 9.77198V14.4538C1.67285 14.8804 2.01852 15.2257 2.4448 15.2257H2.63195V16.0842C2.63195 17.1409 3.49156 18 4.54776 18H14.4121C15.4677 18 16.3273 17.1409 16.3273 16.0842V4.53412L11.7773 0ZM3.63809 10.5739H4.48093L4.76512 11.1664C4.86159 11.3635 4.93401 11.523 5.01107 11.7059H5.02048C5.09753 11.4988 5.16025 11.3541 5.24231 11.1664L5.51683 10.5739H6.35496L5.4397 12.1584L6.40316 13.8206H5.55532L5.26143 13.2328C5.1411 13.0063 5.06405 12.838 4.9722 12.6497H4.9628C4.89511 12.838 4.81339 13.0063 4.71214 13.2328L4.44233 13.8206H3.60419L4.54358 12.1778L3.63809 10.5739ZM14.4121 16.8267H4.54776C4.13877 16.8267 3.80579 16.4937 3.80579 16.0842V15.2257H13.0014C13.4277 15.2257 13.7734 14.8804 13.7734 14.4538V9.77198C13.7734 9.34533 13.4277 8.99996 13.0014 8.99996H3.80579V1.91577C3.80579 1.50742 4.13881 1.1744 4.54776 1.1744L11.3384 1.16731V3.67735C11.3384 4.41051 11.9332 5.00594 12.6669 5.00594L15.1258 4.99889L15.1534 16.0842C15.1535 16.4937 14.821 16.8267 14.4121 16.8267ZM8.82801 13.204V13.8207H6.79979V10.5739H7.5368V13.204H8.82801ZM10.0721 12.4574C9.53257 12.2697 9.1807 11.9708 9.1807 11.4989C9.1807 10.9446 9.64319 10.521 10.4093 10.521C10.7755 10.521 11.045 10.598 11.238 10.6846L11.0741 11.2771C10.9441 11.2147 10.7128 11.1229 10.3948 11.1229C10.0768 11.1229 9.92267 11.2677 9.92267 11.436C9.92267 11.6431 10.1056 11.7349 10.5249 11.8937C11.0982 12.1056 11.368 12.4044 11.368 12.8622C11.368 13.4064 10.9488 13.869 10.0577 13.869C9.68669 13.869 9.32041 13.7725 9.13743 13.6712L9.28692 13.0646C9.4843 13.1658 9.7879 13.2664 10.1009 13.2664C10.4381 13.2664 10.6164 13.127 10.6164 12.9151C10.6164 12.7127 10.4623 12.5968 10.0721 12.4574Z" fill="black"/>
</svg>
