<svg width="280" height="43" viewBox="0 0 280 43" fill="none" xmlns="http://www.w3.org/2000/svg">
<path fill-rule="evenodd" clip-rule="evenodd" d="M2.08555e-05 18.392C0.00726714 20.7987 0.488942 23.1803 1.41749 25.4007C2.34604 27.6211 3.70324 29.6366 5.41146 31.332C7.11967 33.0274 9.14538 34.3693 11.3727 35.2811C13.6 36.1928 15.9853 36.6565 18.392 36.6456C20.7987 36.6492 23.1824 36.1784 25.407 35.2599C27.6315 34.3414 29.6532 32.9933 31.3562 31.2928C33.0593 29.5923 34.4104 27.5727 35.3322 25.3496C36.2541 23.1264 36.7286 20.7433 36.7286 18.3366C36.7212 13.4661 34.7794 8.79802 31.3302 5.35924C27.8811 1.92045 23.2072 -0.00731425 18.3366 2.08559e-05C13.4661 0.00735596 8.79802 1.94919 5.35924 5.39835C1.92045 8.84751 -0.00731418 13.5214 2.08555e-05 18.392Z" fill="url(#paint0_linear)"/>
<path fill-rule="evenodd" clip-rule="evenodd" d="M45.4959 14.1881L44.1131 15.2667C43.3886 14.2908 42.44 13.5035 41.3474 12.9712C40.2304 12.4513 39.0116 12.1868 37.7796 12.1968C36.403 12.184 35.0477 12.5371 33.8523 13.2201C32.6818 13.8688 31.7103 14.8246 31.0427 15.9845C30.375 17.1444 30.0364 18.4644 30.0633 19.8024C30.0225 20.8306 30.2012 21.8557 30.5875 22.8095C30.9738 23.7632 31.5588 24.6238 32.3035 25.3339C33.0365 26.0421 33.903 26.5976 34.8526 26.9679C35.8022 27.3383 36.816 27.5161 37.8349 27.4911C39.0132 27.5266 40.1844 27.2965 41.2616 26.8177C42.3389 26.3389 43.2945 25.6238 44.0578 24.7254L45.4406 25.7764C44.5826 26.9501 43.4534 27.899 42.1494 28.5421C40.7585 29.1652 39.2482 29.4767 37.7243 29.4548C36.322 29.4701 34.9347 29.1639 33.6691 28.5599C32.4034 27.9558 31.2929 27.0698 30.4228 25.97C28.9259 24.2152 28.1283 21.9701 28.1826 19.6642C28.1586 18.4429 28.3926 17.2303 28.8692 16.1056C29.3457 14.9809 30.0542 13.9694 30.9483 13.1371C31.8421 12.2398 32.9078 11.5324 34.0817 11.0571C35.2556 10.5819 36.5134 10.3486 37.7796 10.3714C39.3271 10.3511 40.859 10.6821 42.26 11.3394C43.5596 11.9777 44.6808 12.9279 45.5236 14.1051L45.4959 14.1881ZM47.3213 15.5156H55.9226V16.9814H52.5485V28.625H50.8614V16.9814H47.3213V15.5156ZM71.2723 15.5156V28.625H69.5852V26.3572C68.9433 27.1685 68.1315 27.8293 67.2067 28.2932C66.3454 28.7135 65.3994 28.9311 64.441 28.9293C63.5576 28.944 62.6809 28.7745 61.8666 28.4317C61.0524 28.0888 60.3184 27.5801 59.7116 26.938C59.0711 26.2966 58.567 25.5323 58.2295 24.691C57.8921 23.8497 57.7283 22.9489 57.748 22.0427C57.7373 21.1459 57.9054 20.256 58.2426 19.425C58.5797 18.594 59.0792 17.8385 59.7116 17.2027C60.3309 16.5617 61.075 16.0543 61.8979 15.7118C62.7208 15.3693 63.6051 15.199 64.4963 15.2114C65.457 15.2172 66.4034 15.4443 67.262 15.8751C68.183 16.3717 68.9705 17.0833 69.5576 17.9494V15.5156H71.2723ZM64.524 16.8431C63.6102 16.8292 62.7104 17.0685 61.9242 17.5346C61.1225 17.9709 60.4681 18.6349 60.0435 19.4429C59.5657 20.2859 59.3178 21.2396 59.3244 22.2086C59.3055 23.1791 59.5543 24.136 60.0435 24.9743C60.4904 25.7802 61.1383 26.4567 61.9242 26.938C62.7029 27.3978 63.5921 27.6368 64.4963 27.6294C65.4176 27.6332 66.3237 27.3948 67.1237 26.938C68.0055 26.4601 68.7125 25.7144 69.1427 24.8084C69.61 23.9635 69.8394 23.0076 69.8065 22.0427C69.8285 21.3427 69.7075 20.6456 69.4507 19.9941C69.1939 19.3425 68.8067 18.7503 68.313 18.2537C67.8437 17.7601 67.2767 17.3699 66.6481 17.108C66.0195 16.8461 65.3431 16.7182 64.6623 16.7325L64.524 16.8431ZM86.1518 28.625H84.4094L79.9843 19.0834L75.6144 28.625H73.8167L79.7907 15.5156H80.2055L86.2624 28.625H86.1518ZM88.7239 15.5156H90.3833V21.047L96.4955 15.5156H98.791L92.181 21.4895L99.3165 28.625H96.938L90.9364 22.5681L90.3833 23.0383V28.5697H88.7239V15.5156ZM112.149 24.2829L113.56 25.0296C113.151 25.8507 112.609 26.5984 111.956 27.2422C111.348 27.79 110.645 28.2212 109.882 28.5144C109.045 28.8017 108.166 28.942 107.282 28.9293C106.355 28.971 105.43 28.8065 104.574 28.4479C103.718 28.0892 102.952 27.5452 102.331 26.855C101.206 25.6047 100.561 23.9958 100.51 22.3146C100.46 20.6334 101.007 18.9886 102.055 17.6729C102.661 16.8762 103.449 16.2367 104.354 15.8084C105.259 15.38 106.254 15.1753 107.254 15.2114C108.286 15.1787 109.311 15.3925 110.244 15.835C111.177 16.2775 111.992 16.936 112.62 17.7558C113.586 19.0437 114.075 20.6276 114.002 22.2363H102.165C102.169 23.6204 102.692 24.9526 103.631 25.97C104.086 26.4379 104.633 26.8071 105.238 27.0545C105.842 27.302 106.491 27.4223 107.143 27.4081C107.803 27.4104 108.458 27.2981 109.079 27.0762C109.64 26.8415 110.162 26.5246 110.628 26.1359C111.195 25.591 111.679 24.9668 112.066 24.2829H112.149ZM112.149 20.7428C111.982 19.972 111.652 19.2459 111.181 18.6132C110.716 18.0553 110.13 17.6108 109.467 17.3133C108.774 16.9469 108.009 16.7391 107.226 16.7049C105.994 16.6809 104.798 17.1257 103.88 17.9494C103.115 18.704 102.586 19.6651 102.359 20.7151L112.149 20.7428ZM117.128 15.5156H118.925V17.9494C119.52 17.0896 120.305 16.3795 121.221 15.8751C122.121 15.4231 123.118 15.1954 124.125 15.2114C125.012 15.1979 125.893 15.3678 126.711 15.7104C127.53 16.0531 128.269 16.5611 128.882 17.2027C129.523 17.8333 130.03 18.5873 130.372 19.4191C130.715 20.2508 130.885 21.1433 130.873 22.0427C130.887 22.9481 130.72 23.8471 130.383 24.6875C130.046 25.5279 129.545 26.2929 128.91 26.938C128.296 27.5795 127.558 28.0876 126.739 28.4302C125.92 28.7729 125.04 28.9428 124.153 28.9293C123.195 28.9226 122.251 28.7055 121.387 28.2932C120.463 27.8278 119.651 27.1673 119.008 26.3572V33.2991H117.321V15.5156H117.128ZM123.876 16.8431C123.191 16.8283 122.51 16.9559 121.877 17.2177C121.244 17.4796 120.672 17.87 120.198 18.3643C119.693 18.8706 119.3 19.4763 119.043 20.143C118.786 20.8096 118.671 21.5225 118.704 22.2363C118.671 23.2012 118.901 24.1571 119.368 25.002C119.813 25.7969 120.475 26.449 121.276 26.8827C122.076 27.3395 122.982 27.5779 123.904 27.5741C124.8 27.585 125.681 27.3455 126.448 26.8827C127.248 26.4104 127.907 25.7323 128.356 24.919C128.846 24.0807 129.094 23.1238 129.076 22.1533C129.082 21.1843 128.834 20.2306 128.356 19.3876C127.923 18.5863 127.271 17.9245 126.476 17.4793C125.688 17.0159 124.789 16.7768 123.876 16.7878V16.8431ZM132.754 21.213H139.364V22.7064H132.754V21.213ZM142.296 10.9245H144.093V17.5622L151.201 10.9245H153.58L145.117 18.8621L154.326 28.625H152.114L144.315 20.3279V28.625H142.517V10.9245H142.296ZM162.789 15.2114C163.737 15.1865 164.679 15.3691 165.548 15.7466C166.418 16.124 167.194 16.6871 167.823 17.3963C169.014 18.6885 169.676 20.3818 169.676 22.1395C169.676 23.8971 169.014 25.5904 167.823 26.8827C167.178 27.5316 166.411 28.0465 165.566 28.3979C164.721 28.7493 163.815 28.9302 162.9 28.9302C161.985 28.9302 161.079 28.7493 160.234 28.3979C159.389 28.0465 158.622 27.5316 157.977 26.8827C156.786 25.5904 156.124 23.8971 156.124 22.1395C156.124 20.3818 156.786 18.6885 157.977 17.3963C158.606 16.6871 159.382 16.124 160.252 15.7466C161.122 15.3691 162.063 15.1865 163.011 15.2114H162.789ZM162.789 16.8708C162.117 16.8591 161.45 16.9884 160.831 17.2504C160.211 17.5124 159.654 17.9013 159.194 18.3919C158.685 18.8913 158.284 19.4906 158.018 20.1522C157.751 20.8138 157.624 21.5233 157.645 22.2363C157.609 23.2051 157.849 24.1642 158.337 25.002C158.86 25.7377 159.578 26.3125 160.411 26.6614C161.198 27.0972 162.083 27.3259 162.983 27.3259C163.883 27.3259 164.768 27.0972 165.555 26.6614C166.341 26.2256 166.984 25.5727 167.408 24.7807C167.896 23.9429 168.136 22.9838 168.1 22.015C168.113 21.3179 167.985 20.6253 167.723 19.9789C167.462 19.3326 167.072 18.7457 166.578 18.2537C166.118 17.7643 165.56 17.3764 164.941 17.1145C164.322 16.8526 163.655 16.7225 162.983 16.7325L162.789 16.8708ZM182.149 22.4022H174.488V28.708H172.801V15.5156H174.488V20.7428H182.122V15.5156H183.809V28.625H182.122V22.2363L182.149 22.4022ZM200.32 18.3366L198.965 19.1663C198.456 18.5211 197.821 17.9866 197.098 17.5957C196.376 17.2048 195.581 16.9658 194.762 16.8933C193.944 16.8208 193.119 16.9163 192.339 17.174C191.559 17.4317 190.839 17.8462 190.225 18.3919C189.717 18.87 189.314 19.4491 189.042 20.0921C188.771 20.7351 188.637 21.4278 188.649 22.1256C188.633 23.0958 188.881 24.0519 189.368 24.8913C189.844 25.7219 190.543 26.4022 191.387 26.855C192.664 27.4756 194.118 27.63 195.497 27.2916C196.875 26.9532 198.093 26.1432 198.937 25.002L200.292 25.887C199.649 26.8245 198.772 27.5777 197.748 28.0719C196.617 28.6093 195.376 28.8745 194.125 28.8463C193.179 28.8823 192.236 28.7269 191.352 28.3895C190.468 28.0521 189.662 27.5395 188.981 26.8827C188.332 26.2937 187.813 25.5767 187.456 24.7769C187.099 23.9772 186.912 23.1121 186.906 22.2363C186.902 20.999 187.237 19.7843 187.874 18.7238C188.495 17.6464 189.405 16.7647 190.502 16.1794C191.659 15.5639 192.953 15.25 194.263 15.2667C195.117 15.2655 195.966 15.3961 196.78 15.6539C197.518 15.9023 198.217 16.2563 198.854 16.7049C199.424 17.1622 199.91 17.7142 200.292 18.3366H200.32ZM216.582 15.5709V28.6804H214.895V26.3572C214.26 27.1751 213.447 27.8373 212.517 28.2932C211.657 28.7163 210.71 28.9341 209.751 28.9293C208.868 28.944 207.991 28.7745 207.177 28.4317C206.362 28.0888 205.629 27.5801 205.022 26.938C204.386 26.2929 203.886 25.5279 203.548 24.6875C203.211 23.8471 203.045 22.9481 203.058 22.0427C203.046 21.1433 203.217 20.2508 203.559 19.4191C203.901 18.5873 204.408 17.8333 205.049 17.2027C205.662 16.5611 206.401 16.0531 207.22 15.7104C208.039 15.3678 208.919 15.1979 209.806 15.2114C210.767 15.2172 211.713 15.4443 212.572 15.8751C213.493 16.3717 214.281 17.0833 214.868 17.9494V15.5156L216.582 15.5709ZM209.834 16.8985C208.921 16.8874 208.022 17.1265 207.234 17.5899C206.439 18.0351 205.787 18.6969 205.354 19.4982C204.89 20.3357 204.652 21.2791 204.662 22.2363C204.643 23.2067 204.892 24.1636 205.381 25.002C205.831 25.8153 206.489 26.4933 207.29 26.9656C208.059 27.4245 208.939 27.6636 209.834 27.657C210.802 27.6887 211.76 27.4493 212.6 26.9656C213.401 26.532 214.063 25.8798 214.508 25.0849C214.975 24.24 215.205 23.2842 215.172 22.3192C215.194 21.6193 215.073 20.9222 214.816 20.2706C214.559 19.6191 214.172 19.0269 213.678 18.5302C213.204 18.0359 212.632 17.6455 211.999 17.3837C211.366 17.1218 210.685 16.9943 210 17.0091L209.834 16.8985ZM231.49 28.6804H229.719L225.294 19.1387L220.952 28.6804H219.127L225.128 15.5709H225.405L231.49 28.6804ZM232.568 15.5709H241.17V16.9814H237.685V28.625H235.998V16.9814H232.541V15.5156L232.568 15.5709ZM245.152 15.5709V25.2232L254.777 15.5156V28.625H253.09V19.0004L243.659 28.625H243.382V15.5156L245.152 15.5709ZM267.942 22.2363H260.308V28.5421H258.621V15.5156H260.308V20.7428H267.942V15.5156H269.629V28.625H267.942V22.2363ZM275.049 16.9261V28.5421H273.39V15.5156H280V17.0091L275.049 16.9261Z" fill="#00A3D4"/>
<path fill-rule="evenodd" clip-rule="evenodd" d="M71.6593 37.5859V40.3516H70.7743V33.299H72.7379C73.4538 33.2525 74.1647 33.4472 74.7569 33.8522C74.9661 34.0509 75.131 34.2916 75.2406 34.5585C75.3502 34.8255 75.4022 35.1126 75.393 35.401C75.4001 35.709 75.3393 36.0149 75.2151 36.2969C75.0908 36.5789 74.9061 36.8301 74.6739 37.0327C74.1189 37.4971 73.404 37.7255 72.6826 37.6688L71.6593 37.5859ZM71.6593 33.9351V36.8668H72.5167C73.0575 36.92 73.5989 36.7723 74.0378 36.4519C74.1878 36.311 74.3052 36.1389 74.3816 35.9478C74.4581 35.7567 74.4918 35.5512 74.4803 35.3457C74.4927 35.1507 74.462 34.9555 74.3903 34.7738C74.3186 34.5922 74.2077 34.4286 74.0655 34.2947C73.6437 34.0321 73.151 33.9065 72.655 33.9351H71.6593ZM78.2417 40.4069C77.9095 40.4235 77.5778 40.3649 77.2714 40.2357C76.9649 40.1064 76.6916 39.9097 76.4716 39.6602C76.0398 39.0651 75.8073 38.3487 75.8073 37.6135C75.8073 36.8783 76.0398 36.162 76.4716 35.5669C76.7012 35.3294 76.9762 35.1405 77.2803 35.0114C77.5844 34.8824 77.9114 34.8159 78.2417 34.8159C78.572 34.8159 78.899 34.8824 79.2031 35.0114C79.5072 35.1405 79.7822 35.3294 80.0117 35.5669C80.4795 36.143 80.7162 36.8726 80.6755 37.6135C80.7216 38.3552 80.4844 39.0867 80.0117 39.6602C79.7918 39.9097 79.5184 40.1064 79.212 40.2357C78.9055 40.3649 78.5739 40.4235 78.2417 40.4069ZM78.2417 35.5116C78.0174 35.5003 77.7938 35.545 77.5911 35.6415C77.3883 35.7381 77.2127 35.8835 77.0801 36.0647C76.8082 36.5356 76.6651 37.0698 76.6651 37.6135C76.6651 38.1573 76.8082 38.6914 77.0801 39.1623C77.2141 39.3404 77.3907 39.4818 77.5937 39.5736C77.7967 39.6655 78.0195 39.7047 78.2417 39.6878C78.4675 39.702 78.6935 39.6617 78.9005 39.5703C79.1075 39.4788 79.2894 39.3389 79.4309 39.1623C79.7094 38.6953 79.8441 38.1566 79.8181 37.6135C79.8181 36.2307 79.2927 35.5116 78.2417 35.5116ZM85.7367 39.9367C85.223 40.2048 84.6563 40.356 84.0773 40.3792C83.7265 40.4009 83.3751 40.348 83.0461 40.2241C82.7172 40.1002 82.4183 39.908 82.169 39.6602C81.9272 39.3807 81.7439 39.0556 81.6299 38.704C81.5159 38.3525 81.4735 37.9817 81.5052 37.6135C81.481 37.248 81.5297 36.8813 81.6484 36.5347C81.767 36.1881 81.9534 35.8685 82.1966 35.5946C82.4382 35.3425 82.7312 35.1453 83.0557 35.0165C83.3802 34.8876 83.7286 34.8301 84.0773 34.8478C84.6545 34.8607 85.2214 35.0024 85.7367 35.2627V36.203C85.2797 35.8098 84.7067 35.5767 84.105 35.5393C83.8691 35.5305 83.6343 35.5758 83.4186 35.6717C83.2029 35.7676 83.012 35.9115 82.8604 36.0924C82.525 36.526 82.358 37.0663 82.3902 37.6135C82.3528 38.1614 82.5204 38.7035 82.8604 39.1347C83.012 39.3139 83.2036 39.4549 83.4199 39.5462C83.6361 39.6375 83.8708 39.6765 84.105 39.6602C84.7061 39.6432 85.2828 39.4184 85.7367 39.024V39.9367ZM90.5767 39.9367C90.063 40.2048 89.4963 40.356 88.9173 40.3792C88.571 40.397 88.2249 40.3422 87.901 40.2183C87.5772 40.0945 87.2827 39.9044 87.0366 39.6602C86.79 39.3829 86.6016 39.0588 86.4828 38.7071C86.364 38.3555 86.3172 37.9836 86.3452 37.6135C86.3247 37.2461 86.3778 36.8783 86.5012 36.5316C86.6247 36.1849 86.8161 35.8663 87.0643 35.5946C87.3047 35.341 87.5975 35.1429 87.9223 35.0139C88.2471 34.8849 88.5961 34.8283 88.945 34.8478C89.5129 34.8638 90.0701 35.0055 90.5767 35.2627V36.203C90.1197 35.8098 89.5467 35.5767 88.945 35.5393C88.7048 35.5283 88.4652 35.5725 88.2447 35.6684C88.0242 35.7642 87.8286 35.9093 87.6727 36.0924C87.3597 36.5359 87.204 37.0713 87.2302 37.6135C87.1849 38.1578 87.3425 38.6996 87.6727 39.1347C87.8299 39.3144 88.0266 39.4554 88.2473 39.5465C88.468 39.6377 88.7067 39.6766 88.945 39.6602C89.5434 39.6305 90.1161 39.4072 90.5767 39.024V39.9367ZM96.1081 40.2686H95.3061V36.203L92.5404 40.2686H91.7936V34.9585H92.5957V38.9964L95.3614 34.9585H96.1358V40.2686H96.1081ZM102.11 40.2686H101.308V36.203L98.542 40.2686H97.7952V34.9585H98.5973V38.9964L101.363 34.9585H102.137V40.2686H102.11ZM101.612 32.8842C101.614 33.0845 101.576 33.2832 101.5 33.4685C101.424 33.6538 101.312 33.8219 101.169 33.9628C100.839 34.242 100.412 34.381 99.9801 34.35C99.5394 34.3854 99.1024 34.2463 98.7632 33.9628C98.6209 33.8219 98.5084 33.6538 98.4324 33.4685C98.3563 33.2832 98.3184 33.0845 98.3207 32.8842H99.0674C99.0674 33.5203 99.3993 33.8522 99.9801 33.8522C100.561 33.8522 100.837 33.5203 100.865 32.8842H101.612ZM107.53 39.9367C107.028 40.208 106.469 40.3594 105.899 40.3792C105.548 40.4009 105.196 40.348 104.868 40.2241C104.539 40.1002 104.24 39.908 103.99 39.6602C103.749 39.3807 103.565 39.0556 103.451 38.704C103.337 38.3525 103.295 37.9817 103.327 37.6135C103.302 37.248 103.351 36.8813 103.47 36.5347C103.588 36.1881 103.775 35.8685 104.018 35.5946C104.26 35.3425 104.553 35.1453 104.877 35.0165C105.202 34.8876 105.55 34.8301 105.899 34.8478C106.468 34.8571 107.026 34.9992 107.53 35.2627V36.203C107.073 35.8098 106.5 35.5767 105.899 35.5393C105.663 35.5284 105.427 35.5727 105.211 35.6688C104.995 35.7648 104.804 35.9098 104.654 36.0924C104.319 36.526 104.152 37.0663 104.184 37.6135C104.153 38.1563 104.31 38.6931 104.627 39.1347C104.784 39.3144 104.98 39.4554 105.201 39.5465C105.422 39.6377 105.661 39.6766 105.899 39.6602C106.5 39.6432 107.077 39.4184 107.53 39.024V39.9367ZM113.062 40.2686H112.011L109.826 37.8071H109.273V40.2686H108.443V34.9585H109.273V37.2816C109.541 37.2957 109.808 37.2384 110.047 37.1157C110.25 36.9883 110.413 36.8062 110.517 36.5902L110.822 35.8988C110.923 35.72 111.043 35.5531 111.181 35.401C111.324 35.2596 111.493 35.1469 111.679 35.0691C111.927 35.0353 112.178 35.0353 112.426 35.0691H112.758V35.7882H112.37C112.164 35.776 111.959 35.8345 111.79 35.9541C111.614 36.1122 111.481 36.3119 111.402 36.5349C111.268 36.9701 110.971 37.3366 110.573 37.5582L113.09 40.3239L113.062 40.2686ZM118.261 40.2686H117.459V36.203L114.694 40.2686H113.947V34.9585H114.777V38.9964L117.542 34.9585H118.289V40.2686H118.261ZM124.263 40.2686H123.461V36.203L120.695 40.2686H119.949V34.9585H120.751V38.9964L123.516 34.9585H124.291V40.2686H124.263ZM123.765 32.8842C123.774 33.0853 123.74 33.2861 123.663 33.4724C123.587 33.6587 123.471 33.8261 123.323 33.9628C122.992 34.242 122.565 34.381 122.133 34.35C121.919 34.37 121.703 34.346 121.499 34.2794C121.294 34.2128 121.105 34.1051 120.944 33.9628C120.793 33.8275 120.672 33.661 120.591 33.4749C120.51 33.2887 120.47 33.0872 120.474 32.8842H121.221C121.221 33.5203 121.553 33.8522 122.133 33.8522C122.714 33.8522 123.018 33.5203 123.018 32.8842H123.765ZM133.943 41.5961H133.196V40.3239H129.131V41.5961H128.384V39.6325H128.937C129.298 38.9811 129.568 38.2831 129.739 37.5582C129.93 36.733 130.022 35.8883 130.016 35.0414H133.307V39.6325H133.943V41.5961ZM132.477 39.6325V35.6499H130.79C130.766 37.0165 130.405 38.3561 129.739 39.5495L132.477 39.6325ZM139.419 40.3516H138.617V36.203L135.851 40.2686H135.105V34.9585H135.907V38.9964L138.672 34.9585H139.447V40.2686L139.419 40.3516ZM144.95 40.0197C144.448 40.291 143.889 40.4424 143.319 40.4622C142.968 40.4839 142.616 40.431 142.288 40.3071C141.959 40.1831 141.66 39.9909 141.41 39.7431C141.169 39.4636 140.985 39.1385 140.871 38.787C140.757 38.4355 140.715 38.0647 140.747 37.6965C140.722 37.331 140.771 36.9642 140.89 36.6176C141.008 36.2711 141.195 35.9515 141.438 35.6775C141.678 35.424 141.971 35.2258 142.296 35.0969C142.621 34.9679 142.97 34.9112 143.319 34.9308C143.887 34.944 144.445 35.0858 144.95 35.3457V36.286C144.493 35.8928 143.92 35.6597 143.319 35.6222C143.083 35.6114 142.847 35.6557 142.631 35.7517C142.415 35.8477 142.224 35.9928 142.074 36.1754C141.739 36.6089 141.572 37.1493 141.604 37.6965C141.573 38.2392 141.729 38.7761 142.046 39.2176C142.204 39.3974 142.4 39.5383 142.621 39.6295C142.842 39.7206 143.08 39.7595 143.319 39.7431C143.92 39.7262 144.496 39.5014 144.95 39.107V40.0197ZM149.901 35.7605H148.02V40.3516H147.191V35.6775H145.282V34.9585H149.901V35.6775V35.7605ZM151.588 40.0474V42.2876H150.786V34.9585H151.588V35.5669C152.07 35.1145 152.698 34.8496 153.358 34.8202C153.646 34.8159 153.931 34.8786 154.19 35.0034C154.449 35.1282 154.676 35.3117 154.852 35.5393C155.245 36.1366 155.439 36.8436 155.405 37.5582C155.428 38.293 155.182 39.011 154.713 39.5772C154.515 39.8247 154.261 40.0232 153.974 40.1574C153.686 40.2917 153.371 40.3581 153.054 40.3516C152.542 40.3404 152.039 40.2077 151.588 39.9644V40.0474ZM151.588 36.3137V39.3836C151.992 39.587 152.436 39.7002 152.888 39.7155C153.12 39.7241 153.351 39.6787 153.562 39.5826C153.773 39.4866 153.959 39.3427 154.105 39.1623C154.414 38.7273 154.57 38.202 154.547 37.6688C154.547 36.3413 154.077 35.6775 153.109 35.6775C152.545 35.7106 152.008 35.935 151.588 36.3137ZM161.019 40.3516H160.189V36.203L157.424 40.2686H156.677V34.9585H157.507V38.9964L160.272 34.9585H161.047V40.2686L161.019 40.3516ZM166.8 32.9118V33.6586H165.417C165.051 33.6977 164.69 33.7718 164.338 33.8798C164 33.9977 163.715 34.2333 163.536 34.5436C163.333 34.9183 163.22 35.3347 163.204 35.7605C163.688 35.3798 164.277 35.1576 164.891 35.1244C165.195 35.114 165.497 35.1678 165.778 35.2821C166.059 35.3965 166.313 35.5689 166.523 35.7882C166.961 36.302 167.18 36.9676 167.131 37.6412C167.165 38.3608 166.917 39.0653 166.44 39.6048C166.224 39.8541 165.956 40.0528 165.655 40.1867C165.354 40.3205 165.027 40.3863 164.698 40.3792C164.344 40.398 163.992 40.3235 163.677 40.1634C163.361 40.0032 163.093 39.7629 162.9 39.4666C162.453 38.6758 162.242 37.7737 162.291 36.8668C162.296 36.3448 162.361 35.8251 162.485 35.318C162.562 34.9242 162.692 34.5427 162.872 34.1841C163.02 33.9347 163.218 33.7182 163.453 33.5479C163.689 33.379 163.951 33.2484 164.227 33.1608C164.525 33.0613 164.83 32.9872 165.14 32.9395L166.8 32.8012V32.9118ZM163.176 36.4243C163.164 36.6177 163.164 36.8117 163.176 37.0051C163.13 37.712 163.273 38.4185 163.591 39.0517C163.708 39.2542 163.878 39.4206 164.083 39.5328C164.288 39.645 164.52 39.6987 164.753 39.6878C164.968 39.6987 165.182 39.6593 165.379 39.5729C165.576 39.4865 165.75 39.3554 165.887 39.19C166.186 38.7619 166.332 38.2455 166.302 37.7242C166.302 36.5073 165.804 35.8988 164.753 35.8988C164.198 35.925 163.661 36.1071 163.204 36.4243H163.176ZM168.348 40.2686V34.9585H169.15V37.0051H170.367C170.934 36.9561 171.5 37.1025 171.971 37.4199C172.142 37.5705 172.279 37.7556 172.372 37.963C172.466 38.1705 172.514 38.3954 172.514 38.623C172.514 38.8506 172.466 39.0756 172.372 39.283C172.279 39.4904 172.142 39.6756 171.971 39.8261C171.518 40.1393 170.973 40.2948 170.423 40.2686H168.348ZM169.15 37.6965V39.5772H170.008C170.444 39.6116 170.881 39.5355 171.28 39.3559C171.389 39.2716 171.476 39.1622 171.534 39.037C171.592 38.9118 171.618 38.7746 171.612 38.6368C171.625 38.5078 171.607 38.3775 171.559 38.2571C171.511 38.1367 171.434 38.0297 171.335 37.9454C170.939 37.7265 170.484 37.6393 170.035 37.6965H169.15ZM175.539 37.8348H174.239V40.2686H173.41V34.9585H174.239V37.1434H175.401C175.449 36.5121 175.713 35.9166 176.148 35.4563C176.354 35.249 176.6 35.0857 176.871 34.9764C177.142 34.8671 177.432 34.8139 177.724 34.8202C178.052 34.8058 178.379 34.8655 178.68 34.9947C178.982 35.124 179.251 35.3196 179.466 35.5669C179.879 36.1697 180.1 36.8831 180.1 37.6135C180.1 38.344 179.879 39.0574 179.466 39.6602C179.251 39.9075 178.982 40.1031 178.68 40.2323C178.379 40.3616 178.052 40.4213 177.724 40.4069C177.414 40.4215 177.104 40.3671 176.817 40.2475C176.53 40.128 176.273 39.9463 176.065 39.7155C175.622 39.1881 175.378 38.523 175.373 37.8348H175.539ZM177.89 35.5116C177.67 35.5025 177.451 35.5483 177.253 35.6449C177.055 35.7414 176.884 35.8857 176.756 36.0647C176.478 36.5317 176.343 37.0704 176.369 37.6135C176.343 38.1566 176.478 38.6953 176.756 39.1623C176.896 39.3259 177.07 39.4572 177.266 39.5472C177.462 39.6373 177.675 39.6839 177.89 39.6839C178.105 39.6839 178.318 39.6373 178.514 39.5472C178.71 39.4572 178.884 39.3259 179.024 39.1623C179.302 38.6953 179.437 38.1566 179.411 37.6135C179.411 36.2307 178.913 35.5116 177.89 35.5116ZM185.274 35.6775H183.366V40.2686H182.536V35.6775H180.628V34.9585H185.302V35.6775H185.274ZM188.04 40.4069C187.708 40.4215 187.377 40.362 187.071 40.2329C186.765 40.1037 186.491 39.9081 186.27 39.6602C185.838 39.0651 185.606 38.3487 185.606 37.6135C185.606 36.8783 185.838 36.162 186.27 35.5669C186.491 35.319 186.765 35.1233 187.071 34.9942C187.377 34.865 187.708 34.8056 188.04 34.8202C188.376 34.8053 188.711 34.8645 189.022 34.9936C189.333 35.1226 189.611 35.3183 189.838 35.5669C190.296 36.1469 190.522 36.8761 190.474 37.6135C190.528 38.3516 190.301 39.0827 189.838 39.6602C189.611 39.9087 189.333 40.1045 189.022 40.2335C188.711 40.3626 188.376 40.4217 188.04 40.4069ZM188.04 35.5116C187.816 35.5028 187.593 35.5485 187.391 35.6449C187.189 35.7412 187.013 35.8853 186.879 36.0647C186.607 36.5356 186.464 37.0698 186.464 37.6135C186.464 38.1573 186.607 38.6914 186.879 39.1623C187.016 39.3367 187.193 39.4755 187.395 39.5669C187.597 39.6584 187.819 39.6998 188.04 39.6878C188.266 39.7044 188.493 39.6652 188.7 39.5736C188.908 39.4819 189.089 39.3407 189.229 39.1623C189.533 38.7051 189.679 38.1612 189.644 37.6135C189.644 36.2307 189.119 35.5116 188.04 35.5116ZM192.521 39.9644V42.2046H191.691V34.9585H192.521V35.5669C192.995 35.1205 193.612 34.8561 194.263 34.8202C194.551 34.8114 194.838 34.8722 195.098 34.9973C195.357 35.1225 195.583 35.3084 195.756 35.5393C196.15 36.1366 196.344 36.8436 196.31 37.5582C196.341 38.2895 196.105 39.0071 195.646 39.5772C195.447 39.8247 195.194 40.0232 194.906 40.1574C194.619 40.2917 194.304 40.3581 193.986 40.3516C193.473 40.3448 192.97 40.2118 192.521 39.9644ZM192.521 36.2307V39.3006C192.923 39.5075 193.368 39.6209 193.82 39.6325C194.048 39.6412 194.275 39.5956 194.482 39.4994C194.689 39.4032 194.87 39.2592 195.01 39.0794C195.331 38.6505 195.488 38.1206 195.452 37.5859C195.452 36.2583 194.982 35.5946 194.042 35.5946C193.475 35.6185 192.936 35.8441 192.521 36.2307ZM206.349 40.2686H205.215L202.449 37.0051H201.73V40.2686H200.79V33.299H201.675V36.4796C201.914 36.5109 202.155 36.5109 202.394 36.4796C202.578 36.4119 202.748 36.3085 202.892 36.1754C203.019 36.0511 203.131 35.9118 203.224 35.7605C203.224 35.5946 203.445 35.2903 203.639 34.8202C203.784 34.3764 204.053 33.9831 204.413 33.6862C204.794 33.4784 205.225 33.3825 205.658 33.4097H205.962V34.1564H205.575C205.29 34.1382 205.008 34.2161 204.773 34.3777C204.569 34.6449 204.41 34.9439 204.302 35.2627C204.195 35.5759 204.046 35.8735 203.86 36.1477C203.672 36.4044 203.425 36.6129 203.141 36.7562L206.377 40.4622L206.349 40.2686ZM207.981 39.9644V42.2046H207.179V34.9585H207.981V35.5669C208.463 35.1145 209.091 34.8496 209.751 34.8202C210.039 34.8159 210.323 34.8786 210.583 35.0034C210.842 35.1282 211.068 35.3117 211.244 35.5393C211.638 36.1366 211.832 36.8436 211.798 37.5582C211.822 37.9238 211.773 38.2905 211.654 38.6371C211.536 38.9837 211.349 39.3032 211.106 39.5772C210.912 39.8225 210.663 40.0199 210.38 40.1541C210.097 40.2884 209.787 40.3559 209.474 40.3516C208.953 40.3448 208.44 40.212 207.981 39.9644ZM207.981 36.2307V39.3006C208.385 39.504 208.829 39.6173 209.281 39.6325C209.513 39.6434 209.744 39.5989 209.956 39.5027C210.168 39.4065 210.353 39.2614 210.498 39.0794C210.819 38.6505 210.976 38.1206 210.94 37.5859C210.94 36.2583 210.47 35.5946 209.502 35.5946C208.937 35.6276 208.401 35.852 207.981 36.2307ZM216.278 38.9964V37.4753C215.512 37.442 214.748 37.574 214.038 37.8624C213.885 37.9402 213.758 38.0592 213.67 38.2059C213.582 38.3526 213.537 38.5211 213.54 38.6922C213.54 39.3283 213.927 39.6325 214.674 39.6325C215.266 39.6138 215.834 39.3888 216.278 38.9964ZM216.278 40.2686V39.6602C215.955 39.922 215.59 40.1277 215.199 40.2686C214.912 40.3548 214.614 40.4014 214.314 40.4069C214.099 40.4121 213.885 40.3731 213.685 40.2922C213.485 40.2113 213.304 40.0903 213.153 39.9367C213 39.7794 212.879 39.5934 212.799 39.3892C212.718 39.1851 212.678 38.9669 212.683 38.7475C212.664 38.4762 212.718 38.2049 212.84 37.9617C212.961 37.7184 213.146 37.5123 213.374 37.3646C214.286 36.9587 215.28 36.7693 216.278 36.8115V36.6455C216.287 36.4913 216.262 36.3371 216.205 36.1937C216.147 36.0502 216.059 35.9212 215.946 35.8158C215.593 35.6182 215.188 35.5315 214.785 35.5669C214.231 35.5786 213.686 35.7008 213.18 35.9265V35.0691C213.732 34.9293 214.298 34.8551 214.867 34.8478C215.472 34.8034 216.075 34.9589 216.582 35.2903C216.769 35.4603 216.913 35.6711 217.004 35.9062C217.095 36.1413 217.131 36.3944 217.108 36.6455V40.2686H216.278ZM222.473 39.9367C221.961 40.2084 221.393 40.3597 220.814 40.3792C220.467 40.397 220.121 40.3422 219.797 40.2183C219.474 40.0945 219.179 39.9044 218.933 39.6602C218.686 39.3829 218.498 39.0588 218.379 38.7071C218.26 38.3555 218.214 37.9836 218.242 37.6135C218.221 37.2461 218.274 36.8783 218.398 36.5316C218.521 36.1849 218.713 35.8663 218.961 35.5946C219.201 35.341 219.494 35.1429 219.819 35.0139C220.144 34.8849 220.493 34.8283 220.841 34.8478C221.41 34.861 221.968 35.0029 222.473 35.2627V36.203C222.016 35.8098 221.443 35.5767 220.841 35.5393C220.601 35.5304 220.363 35.5754 220.142 35.6712C219.922 35.7669 219.726 35.9109 219.569 36.0924C219.256 36.5359 219.1 37.0713 219.127 37.6135C219.096 38.1563 219.252 38.6931 219.569 39.1347C219.726 39.3144 219.923 39.4554 220.144 39.5465C220.364 39.6377 220.603 39.6766 220.841 39.6602C221.443 39.6432 222.019 39.4184 222.473 39.024V39.9367ZM225.543 40.4069C225.211 40.4215 224.88 40.362 224.574 40.2329C224.268 40.1037 223.994 39.9081 223.773 39.6602C223.341 39.0651 223.109 38.3487 223.109 37.6135C223.109 36.8783 223.341 36.162 223.773 35.5669C223.994 35.319 224.268 35.1233 224.574 34.9942C224.88 34.865 225.211 34.8056 225.543 34.8202C225.879 34.8053 226.214 34.8645 226.525 34.9936C226.836 35.1226 227.114 35.3183 227.341 35.5669C227.787 36.1528 228.013 36.8777 227.977 37.6135C228.018 38.35 227.792 39.0765 227.341 39.6602C227.114 39.9087 226.836 40.1045 226.525 40.2335C226.214 40.3626 225.879 40.4217 225.543 40.4069ZM225.543 35.5116C225.319 35.5028 225.096 35.5485 224.894 35.6449C224.692 35.7412 224.516 35.8853 224.381 36.0647C224.11 36.5356 223.967 37.0698 223.967 37.6135C223.967 38.1573 224.11 38.6914 224.381 39.1623C224.519 39.3367 224.696 39.4755 224.898 39.5669C225.1 39.6584 225.322 39.6998 225.543 39.6878C225.769 39.7044 225.996 39.6652 226.203 39.5736C226.411 39.4819 226.592 39.3407 226.732 39.1623C227.036 38.7051 227.181 38.1612 227.147 37.6135C227.147 36.2307 226.594 35.5116 225.543 35.5116ZM232.983 35.6775H231.102V40.2686H230.272V35.6775H228.392V34.9585H232.983V35.6775ZM239.621 40.2686H238.791V34.9585H239.621V40.2686ZM233.868 40.2686V34.9585H234.698V37.0051H235.887C236.453 36.9561 237.019 37.1025 237.491 37.4199C237.661 37.5658 237.794 37.7492 237.881 37.9557C237.967 38.1621 238.004 38.3859 237.989 38.6092C237.997 38.8411 237.952 39.0718 237.856 39.283C237.76 39.4942 237.616 39.6802 237.436 39.8261C236.967 40.1293 236.417 40.2836 235.859 40.2686H233.868ZM234.698 37.6965V39.5772H235.527C235.963 39.6116 236.401 39.5355 236.8 39.3559C236.909 39.2716 236.996 39.1622 237.053 39.037C237.111 38.9118 237.138 38.7746 237.131 38.6368C237.142 38.5105 237.125 38.3834 237.082 38.2641C237.039 38.1448 236.971 38.0361 236.882 37.9454C236.475 37.7312 236.012 37.6445 235.555 37.6965H234.698Z" fill="#989999"/>
<defs>
<linearGradient id="paint0_linear" x1="2.08555e-05" y1="18.4473" x2="37.0605" y2="18.4473" gradientUnits="userSpaceOnUse">
<stop stop-color="#0099CB"/>
<stop offset="0.01" stop-color="#00A3D4"/>
<stop offset="0.9" stop-color="white"/>
<stop offset="1" stop-color="white"/>
</linearGradient>
</defs>
</svg>
