<svg width="15" height="15" viewBox="0 0 15 15" fill="none" xmlns="http://www.w3.org/2000/svg">
<path d="M5.46511 8.27543C5.46511 8.08753 5.3127 7.9353 5.12464 7.9353H3.93654C3.74869 7.9353 3.59625 8.08753 3.59625 8.27543V9.46338C3.59625 9.65153 3.74869 9.80382 3.93654 9.80382H5.12464C5.3127 9.80382 5.46511 9.65153 5.46511 9.46338V8.27543Z" fill="black"/>
<path d="M8.43434 8.27543C8.43434 8.08753 8.2819 7.9353 8.09421 7.9353H6.90596C6.71812 7.9353 6.56567 8.08753 6.56567 8.27543V9.46338C6.56567 9.65153 6.71812 9.80382 6.90596 9.80382H8.09421C8.2819 9.80382 8.43434 9.65153 8.43434 9.46338V8.27543Z" fill="black"/>
<path d="M11.4037 8.27543C11.4037 8.08753 11.2512 7.9353 11.0634 7.9353H9.87531C9.68726 7.9353 9.53485 8.08753 9.53485 8.27543V9.46338C9.53485 9.65153 9.68726 9.80382 9.87531 9.80382H11.0634C11.2512 9.80382 11.4037 9.65153 11.4037 9.46338V8.27543Z" fill="black"/>
<path d="M5.46511 11.245C5.46511 11.0568 5.3127 10.9047 5.12464 10.9047H3.93654C3.74869 10.9047 3.59625 11.0568 3.59625 11.245V12.4327C3.59625 12.6207 3.74869 12.773 3.93654 12.773H5.12464C5.3127 12.773 5.46511 12.6207 5.46511 12.4327V11.245Z" fill="black"/>
<path d="M8.43434 11.245C8.43434 11.0568 8.2819 10.9047 8.09421 10.9047H6.90596C6.71812 10.9047 6.56567 11.0568 6.56567 11.245V12.4327C6.56567 12.6207 6.71812 12.773 6.90596 12.773H8.09421C8.2819 12.773 8.43434 12.6207 8.43434 12.4327V11.245Z" fill="black"/>
<path d="M11.4037 11.245C11.4037 11.0568 11.2512 10.9047 11.0636 10.9047H9.87531C9.68726 10.9047 9.53485 11.0568 9.53485 11.245V12.4327C9.53485 12.6207 9.68726 12.773 9.87531 12.773H11.0636C11.2512 12.773 11.4037 12.6207 11.4037 12.4327V11.245Z" fill="black"/>
<path d="M13.5282 1.67021V3.48471C13.5282 4.30485 12.8629 4.96575 12.0428 4.96575H11.1059C10.2858 4.96575 9.61163 4.30485 9.61163 3.48471V1.6637H5.38836V3.48471C5.38836 4.30485 4.71424 4.96575 3.89429 4.96575H2.95711C2.13713 4.96575 1.47184 4.30485 1.47184 3.48471V1.67021C0.755165 1.69181 0.16626 2.28484 0.16626 3.01374V13.6476C0.16626 14.3902 0.768163 15.0001 1.51077 15.0001H13.4892C14.2307 15.0001 14.8337 14.3889 14.8337 13.6476V3.01374C14.8337 2.28484 14.2449 1.69181 13.5282 1.67021ZM13.093 12.9854C13.093 13.3063 12.8328 13.5667 12.5117 13.5667H2.46267C2.14162 13.5667 1.88141 13.3063 1.88141 12.9854V7.49262C1.88141 7.17157 2.14159 6.91121 2.46267 6.91121H12.5117C12.8327 6.91121 13.0929 7.17157 13.0929 7.49262L13.093 12.9854Z" fill="black"/>
<path d="M2.95381 3.99297H3.88063C4.16195 3.99297 4.39004 3.76521 4.39004 3.48389V0.509257C4.39004 0.227911 4.16195 0 3.88063 0H2.95381C2.67246 0 2.4444 0.227911 2.4444 0.509257V3.48389C2.4444 3.76521 2.67246 3.99297 2.95381 3.99297Z" fill="black"/>
<path d="M11.0939 3.99297H12.0207C12.3018 3.99297 12.5299 3.76521 12.5299 3.48389V0.509257C12.53 0.227911 12.3019 0 12.0207 0H11.0939C10.8126 0 10.5845 0.227911 10.5845 0.509257V3.48389C10.5845 3.76521 10.8126 3.99297 11.0939 3.99297Z" fill="black"/>
</svg>
