<svg width="18" height="19" viewBox="0 0 18 19" fill="none" xmlns="http://www.w3.org/2000/svg">
<path d="M12.742 0.839355H4.71752C2.11629 0.839355 0 3.02116 0 5.70293V13.9759C0 16.6576 2.11629 18.8394 4.71752 18.8394H12.742C15.3433 18.8394 17.4595 16.6576 17.4595 13.9759V5.70293C17.4595 3.02116 15.3433 0.839355 12.742 0.839355ZM16.049 13.9759C16.049 15.8558 14.5655 17.3852 12.742 17.3852H4.71752C2.89406 17.3852 1.41054 15.8558 1.41054 13.9759V5.70293C1.41054 3.82301 2.89402 2.29357 4.71752 2.29357H12.742C14.5655 2.29357 16.049 3.82298 16.049 5.70293V13.9759Z" fill="#4D4D4D"/>
<path d="M12.6373 9.21136C12.5132 8.34837 12.1313 7.56621 11.5329 6.94932C10.9345 6.33247 10.1759 5.93871 9.33882 5.81078C8.95771 5.75253 8.57132 5.75253 8.19024 5.81078C7.15576 5.96895 6.24299 6.53293 5.62001 7.39887C4.99702 8.2648 4.73837 9.32906 4.89179 10.3955C5.0452 11.462 5.59225 12.403 6.43218 13.0453C7.11406 13.5667 7.92259 13.8405 8.75624 13.8405C8.94949 13.8405 9.14414 13.8258 9.33879 13.796C10.3733 13.6379 11.286 13.0739 11.909 12.2079C12.532 11.342 12.7907 10.2778 12.6373 9.21136ZM9.1319 12.3575C8.47017 12.4589 7.80981 12.2882 7.27249 11.8773C6.73517 11.4664 6.38522 10.8644 6.28712 10.1822C6.18898 9.49999 6.3544 8.81919 6.75293 8.26523C7.1515 7.71127 7.73541 7.35049 8.39716 7.24931C8.51904 7.23068 8.64177 7.22136 8.7645 7.22136C8.88723 7.22136 9.00999 7.23068 9.13186 7.24935C10.231 7.41736 11.0789 8.29156 11.2419 9.42472C11.4445 10.833 10.498 12.1487 9.1319 12.3575Z" fill="#4D4D4D"/>
<path d="M13.6419 4.77499C13.5105 4.6396 13.3287 4.56201 13.1432 4.56201C12.9576 4.56201 12.7758 4.63957 12.6444 4.77499C12.5131 4.91041 12.4379 5.09751 12.4379 5.28915C12.4379 5.48079 12.5131 5.66789 12.6444 5.80332C12.7758 5.9387 12.9576 6.01629 13.1432 6.01629C13.3287 6.01629 13.5105 5.93874 13.6419 5.80332C13.7732 5.66789 13.8485 5.48047 13.8485 5.28915C13.8485 5.0978 13.7732 4.91038 13.6419 4.77499Z" fill="#4D4D4D"/>
</svg>
