<svg width="6" height="23" viewBox="0 0 6 23" fill="none" xmlns="http://www.w3.org/2000/svg">
<path d="M6 19.9543C6 20.7839 5.7035 21.499 5.11051 22.0994C4.51752 22.6998 3.80593 23 2.97574 23C2.14555 23 1.43935 22.7053 0.857143 22.1158C0.285714 21.5154 0 20.7949 0 19.9543C0 19.1028 0.285714 18.3878 0.857143 17.8092C1.43935 17.2197 2.14555 16.925 2.97574 16.925C3.81671 16.925 4.5283 17.2197 5.11051 17.8092C5.7035 18.3878 6 19.1028 6 19.9543ZM2.34501 15.6543C2.20485 13.5801 1.78437 11.2222 1.08356 8.58038C0.382749 5.93858 0.032345 4.2629 0.032345 3.55332C0.032345 2.43984 0.296496 1.57198 0.824798 0.949737C1.3531 0.316579 2.08086 0 3.00809 0C3.93531 0 4.65768 0.311121 5.1752 0.933362C5.7035 1.5556 5.96765 2.42892 5.96765 3.55332C5.96765 4.2629 5.62264 5.93858 4.93261 8.58038C4.24259 11.2222 3.8221 13.5801 3.67116 15.6543H2.34501Z" fill="white"/>
</svg>
